<mxfile host="app.diagrams.net" modified="2023-07-10T12:04:15.639Z" agent="Mozilla/5.0 (Windows NT 10.0; Win64; x64) AppleWebKit/537.36 (KHTML, like Gecko) Chrome/114.0.0.0 Safari/537.36" etag="fpdRevvaBdvD7eJnj2-g" version="21.6.1" type="github">
  <diagram id="6a731a19-8d31-9384-78a2-239565b7b9f0" name="Page-1">
    <mxGraphModel dx="1434" dy="756" grid="1" gridSize="10" guides="1" tooltips="1" connect="1" arrows="1" fold="1" page="1" pageScale="1" pageWidth="1169" pageHeight="827" background="none" math="0" shadow="0">
      <root>
        <mxCell id="0" />
        <mxCell id="1" parent="0" />
        <mxCell id="rkMWaeEtUrmUBE1A2ZXG-1784" value="" style="edgeStyle=orthogonalEdgeStyle;rounded=0;orthogonalLoop=1;jettySize=auto;html=1;labelBackgroundColor=default;labelBorderColor=none;fontColor=#119732;" edge="1" parent="1" source="rkMWaeEtUrmUBE1A2ZXG-1779" target="rkMWaeEtUrmUBE1A2ZXG-1783">
          <mxGeometry relative="1" as="geometry" />
        </mxCell>
        <mxCell id="rkMWaeEtUrmUBE1A2ZXG-1779" value="&lt;div style=&quot;text-align: center;&quot;&gt;&lt;span style=&quot;background-color: initial;&quot;&gt;Solo elige una opción:&lt;/span&gt;&lt;br&gt;&lt;/div&gt;&lt;span style=&quot;display: inline-block; color: rgb(51, 51, 51); font-family: system-ui, -apple-system, BlinkMacSystemFont, &amp;quot;Segoe UI&amp;quot;, Roboto, Ubuntu, &amp;quot;Helvetica Neue&amp;quot;, Arial, sans-serif, &amp;quot;Apple Color Emoji&amp;quot;, &amp;quot;Segoe UI Emoji&amp;quot;, &amp;quot;Segoe UI Symbol&amp;quot;; font-size: 10px; background-color: rgb(255, 255, 255);&quot; class=&quot;bx-im-message-command-wrap&quot;&gt;&lt;span style=&quot;border-bottom: 1px dashed rgb(32, 103, 176); cursor: pointer; color: rgb(32, 103, 176); display: inline-block; font-size: 10px;&quot; data-entity=&quot;send&quot; class=&quot;bx-im-message-command&quot;&gt;1 - ¿Quieres saber más sobre nuestros súper planes de servicio?. Contactar con un comercial&lt;/span&gt;&lt;/span&gt;&lt;br style=&quot;color: rgb(51, 51, 51); font-family: system-ui, -apple-system, BlinkMacSystemFont, &amp;quot;Segoe UI&amp;quot;, Roboto, Ubuntu, &amp;quot;Helvetica Neue&amp;quot;, Arial, sans-serif, &amp;quot;Apple Color Emoji&amp;quot;, &amp;quot;Segoe UI Emoji&amp;quot;, &amp;quot;Segoe UI Symbol&amp;quot;; font-size: 10px; background-color: rgb(255, 255, 255);&quot;&gt;&lt;span style=&quot;display: inline-block; color: rgb(51, 51, 51); font-family: system-ui, -apple-system, BlinkMacSystemFont, &amp;quot;Segoe UI&amp;quot;, Roboto, Ubuntu, &amp;quot;Helvetica Neue&amp;quot;, Arial, sans-serif, &amp;quot;Apple Color Emoji&amp;quot;, &amp;quot;Segoe UI Emoji&amp;quot;, &amp;quot;Segoe UI Symbol&amp;quot;; font-size: 10px; background-color: rgb(255, 255, 255);&quot; class=&quot;bx-im-message-command-wrap&quot;&gt;&lt;span style=&quot;border-bottom: 1px dashed rgb(32, 103, 176); cursor: pointer; color: rgb(32, 103, 176); display: inline-block; font-size: 10px;&quot; data-entity=&quot;send&quot; class=&quot;bx-im-message-command&quot;&gt;2 - ¿Ups, olvidaste tu contraseña? Yo te ayudo.&lt;/span&gt;&lt;/span&gt;&lt;br style=&quot;color: rgb(51, 51, 51); font-family: system-ui, -apple-system, BlinkMacSystemFont, &amp;quot;Segoe UI&amp;quot;, Roboto, Ubuntu, &amp;quot;Helvetica Neue&amp;quot;, Arial, sans-serif, &amp;quot;Apple Color Emoji&amp;quot;, &amp;quot;Segoe UI Emoji&amp;quot;, &amp;quot;Segoe UI Symbol&amp;quot;; font-size: 10px; background-color: rgb(255, 255, 255);&quot;&gt;&lt;span style=&quot;display: inline-block; color: rgb(51, 51, 51); font-family: system-ui, -apple-system, BlinkMacSystemFont, &amp;quot;Segoe UI&amp;quot;, Roboto, Ubuntu, &amp;quot;Helvetica Neue&amp;quot;, Arial, sans-serif, &amp;quot;Apple Color Emoji&amp;quot;, &amp;quot;Segoe UI Emoji&amp;quot;, &amp;quot;Segoe UI Symbol&amp;quot;; font-size: 10px; background-color: rgb(255, 255, 255);&quot; class=&quot;bx-im-message-command-wrap&quot;&gt;&lt;span style=&quot;border-bottom: 1px dashed rgb(32, 103, 176); cursor: pointer; color: rgb(32, 103, 176); display: inline-block; font-size: 10px;&quot; data-entity=&quot;send&quot; class=&quot;bx-im-message-command&quot;&gt;3 - ¿Quieres aprender sobre los distintos medios de pago? ¡Fácil!&lt;/span&gt;&lt;/span&gt;&lt;br style=&quot;color: rgb(51, 51, 51); font-family: system-ui, -apple-system, BlinkMacSystemFont, &amp;quot;Segoe UI&amp;quot;, Roboto, Ubuntu, &amp;quot;Helvetica Neue&amp;quot;, Arial, sans-serif, &amp;quot;Apple Color Emoji&amp;quot;, &amp;quot;Segoe UI Emoji&amp;quot;, &amp;quot;Segoe UI Symbol&amp;quot;; font-size: 10px; background-color: rgb(255, 255, 255);&quot;&gt;&lt;span style=&quot;display: inline-block; color: rgb(51, 51, 51); font-family: system-ui, -apple-system, BlinkMacSystemFont, &amp;quot;Segoe UI&amp;quot;, Roboto, Ubuntu, &amp;quot;Helvetica Neue&amp;quot;, Arial, sans-serif, &amp;quot;Apple Color Emoji&amp;quot;, &amp;quot;Segoe UI Emoji&amp;quot;, &amp;quot;Segoe UI Symbol&amp;quot;; font-size: 10px; background-color: rgb(255, 255, 255);&quot; class=&quot;bx-im-message-command-wrap&quot;&gt;&lt;span style=&quot;border-bottom: 1px dashed rgb(32, 103, 176); cursor: pointer; color: rgb(32, 103, 176); display: inline-block; font-size: 10px;&quot; data-entity=&quot;send&quot; class=&quot;bx-im-message-command&quot;&gt;4 - ¿Te gustaría ver cómo va tu cuenta?&lt;/span&gt;&lt;/span&gt;&lt;br style=&quot;color: rgb(51, 51, 51); font-family: system-ui, -apple-system, BlinkMacSystemFont, &amp;quot;Segoe UI&amp;quot;, Roboto, Ubuntu, &amp;quot;Helvetica Neue&amp;quot;, Arial, sans-serif, &amp;quot;Apple Color Emoji&amp;quot;, &amp;quot;Segoe UI Emoji&amp;quot;, &amp;quot;Segoe UI Symbol&amp;quot;; font-size: 10px; background-color: rgb(255, 255, 255);&quot;&gt;&lt;span style=&quot;display: inline-block; color: rgb(51, 51, 51); font-family: system-ui, -apple-system, BlinkMacSystemFont, &amp;quot;Segoe UI&amp;quot;, Roboto, Ubuntu, &amp;quot;Helvetica Neue&amp;quot;, Arial, sans-serif, &amp;quot;Apple Color Emoji&amp;quot;, &amp;quot;Segoe UI Emoji&amp;quot;, &amp;quot;Segoe UI Symbol&amp;quot;; font-size: 10px; background-color: rgb(255, 255, 255);&quot; class=&quot;bx-im-message-command-wrap&quot;&gt;&lt;span style=&quot;border-bottom: 1px dashed rgb(32, 103, 176); cursor: pointer; color: rgb(32, 103, 176); display: inline-block; font-size: 10px;&quot; data-entity=&quot;send&quot; class=&quot;bx-im-message-command&quot;&gt;5 - ¿Prefieres hablar con un asesor personalizado? No hay problema.&lt;/span&gt;&lt;/span&gt;" style="rounded=0;whiteSpace=wrap;html=1;fontSize=10;align=left;" vertex="1" parent="1">
          <mxGeometry x="420" y="50" width="440" height="110" as="geometry" />
        </mxCell>
        <mxCell id="rkMWaeEtUrmUBE1A2ZXG-1780" value="Menu Principal" style="text;html=1;align=center;verticalAlign=middle;resizable=0;points=[];autosize=1;strokeColor=none;fillColor=none;fontStyle=1" vertex="1" parent="1">
          <mxGeometry x="570" y="20" width="110" height="30" as="geometry" />
        </mxCell>
        <mxCell id="rkMWaeEtUrmUBE1A2ZXG-1783" value="Opcion 5" style="rounded=0;whiteSpace=wrap;html=1;" vertex="1" parent="1">
          <mxGeometry x="320" y="210" width="215" height="60" as="geometry" />
        </mxCell>
      </root>
    </mxGraphModel>
  </diagram>
</mxfile>
